<svg id="visual" viewBox="0 0 900 450" width="900" height="450" xmlns="http://www.w3.org/2000/svg" xmlns:xlink="http://www.w3.org/1999/xlink" version="1.1"><rect x="0" y="0" width="900" height="450" fill="#27272a"></rect><path d="M0 36L21.5 36.8C43 37.7 86 39.3 128.8 38.5C171.7 37.7 214.3 34.3 257.2 32C300 29.7 343 28.3 385.8 31.2C428.7 34 471.3 41 514.2 41.7C557 42.3 600 36.7 642.8 35C685.7 33.3 728.3 35.7 771.2 35.5C814 35.3 857 32.7 878.5 31.3L900 30L900 0L878.5 0C857 0 814 0 771.2 0C728.3 0 685.7 0 642.8 0C600 0 557 0 514.2 0C471.3 0 428.7 0 385.8 0C343 0 300 0 257.2 0C214.3 0 171.7 0 128.8 0C86 0 43 0 21.5 0L0 0Z" fill="#0284c7" stroke-linecap="round" stroke-linejoin="miter"></path></svg>