<svg id="visual" viewBox="0 0 900 600" width="900" height="600" xmlns="http://www.w3.org/2000/svg" xmlns:xlink="http://www.w3.org/1999/xlink" version="1.1"><rect x="0" y="0" width="900" height="600" fill="#18181b"></rect><path d="M0 431L21.5 436.2C43 441.3 86 451.7 128.8 445.3C171.7 439 214.3 416 257.2 421.3C300 426.7 343 460.3 385.8 467.8C428.7 475.3 471.3 456.7 514.2 452.3C557 448 600 458 642.8 451.7C685.7 445.3 728.3 422.7 771.2 420.2C814 417.7 857 435.3 878.5 444.2L900 453L900 601L878.5 601C857 601 814 601 771.2 601C728.3 601 685.7 601 642.8 601C600 601 557 601 514.2 601C471.3 601 428.7 601 385.8 601C343 601 300 601 257.2 601C214.3 601 171.7 601 128.8 601C86 601 43 601 21.5 601L0 601Z" fill="#fafafa" stroke-linecap="round" stroke-linejoin="miter"></path></svg>